<?xml version="1.0" standalone="no"?>
<!DOCTYPE svg PUBLIC "-//W3C//DTD SVG 20010904//EN"
 "http://www.w3.org/TR/2001/REC-SVG-20010904/DTD/svg10.dtd">
<svg version="1.0" xmlns="http://www.w3.org/2000/svg"
 width="96.000000pt" height="96.000000pt" viewBox="0 0 96.000000 96.000000"
 preserveAspectRatio="xMidYMid meet">
<metadata>
Created by potrace 1.14, written by Peter Selinger 2001-2017
</metadata>
<g transform="translate(0.000000,96.000000) scale(0.100000,-0.100000)"
fill="#000000" stroke="none">
<path d="M219 797 c-94 -35 -143 -108 -144 -212 0 -94 19 -121 216 -292 96
-83 180 -152 187 -152 21 -1 357 294 383 336 34 55 34 150 -2 218 -50 98 -169
138 -264 89 -39 -20 -40 -22 -51 -95 -6 -41 -9 -77 -7 -81 2 -4 15 -3 29 2 25
10 25 9 19 -22 -4 -18 -28 -98 -54 -178 l-48 -145 -6 50 c-3 28 -9 85 -12 127
-6 73 -8 77 -26 68 -22 -12 -20 -25 -28 134 l-6 119 -35 18 c-49 25 -108 31
-151 16z m51 -72 c0 -16 -6 -25 -16 -25 -25 0 -74 -56 -74 -84 0 -21 -5 -26
-26 -26 -25 0 -26 3 -21 34 7 45 34 84 72 107 43 27 65 25 65 -6z"/>
</g>
</svg>
